<svg xmlns="http://www.w3.org/2000/svg" width="40" height="40" viewBox="0 0 40 40" fill="none">
<g clip-path="url(#clip0_1140_304)">
<path d="M34.2285 10.1453C34.1439 7.58634 34.097 4.129 34.122 1.56829C34.1229 1.4541 34.1047 1.35354 34.0788 1.25881C34.1284 0.700791 33.8012 0.111946 33.0866 0.130588C24.0666 0.367291 15.0485 0.0140737 6.02879 2.33427e-06C5.27853 -0.00143169 4.94987 0.658129 5.04237 1.23703C5.01252 1.33759 4.99164 1.44568 4.99298 1.56882C5.12912 12.332 5.4991 27.797 5.51066 38.562C5.51066 38.8037 5.57914 38.9994 5.68857 39.155C5.75481 39.611 6.08293 40.0143 6.67617 39.9997C10.5747 39.9028 14.4749 39.8405 18.3705 39.6493C21.8429 39.4791 26.1696 39.7071 29.4884 38.5743C30.6631 38.1729 31.7144 37.5794 32.6156 36.7206C34.2626 35.1504 34.8247 33.0428 34.9672 30.8218C35.1032 28.6882 34.852 26.4504 34.8019 24.4847C34.6737 19.407 34.395 15.222 34.2285 10.1453ZM28.5213 29.3434C27.8863 29.347 27.2729 29.8426 27.5563 30.604C28.1271 32.1356 28.3879 34.0371 27.5108 35.502C26.45 37.2734 24.5572 37.2252 22.7571 37.4522C21.6567 37.591 20.4865 37.5173 19.3767 37.5487C18.5131 37.5728 7.57933 37.8395 7.57933 37.8823C7.55361 27.521 7.21115 12.4582 7.07276 2.09753C15.4006 2.13347 23.7261 2.41956 32.0539 2.24156C32.0221 10.7483 32.7763 23.0454 32.8208 29.7683C31.5292 29.3605 30.1939 29.1885 28.8153 29.281C28.7065 29.2879 28.6104 29.3125 28.5213 29.3434ZM29.3345 36.4256C30.1711 35.0006 30.3795 33.252 29.9449 31.3564C30.952 31.3956 31.9452 31.5898 32.885 31.9886C32.8896 32 32.8923 32.0122 32.8964 32.0241C32.5909 34.2701 31.1705 35.6482 29.3345 36.4256Z" fill="#8C7AEC"/>
<path d="M11.6566 12.9707C11.1257 12.9147 10.8103 13.2095 10.7004 13.5928C10.5956 13.7467 10.5298 13.9387 10.5302 14.1745C10.5404 17.3398 10.6422 20.4979 10.2972 23.6506C10.1499 24.9941 12.249 24.9799 12.3944 23.6506C12.5443 22.2811 12.6073 20.9104 12.633 19.5385C14.3131 19.4874 15.9795 18.7548 15.8856 16.7293C15.783 14.5199 13.6524 13.1814 11.6566 12.9707ZM13.6765 17.2354C13.3927 17.4536 13.0197 17.5128 12.6484 17.5067C12.6466 16.7924 12.6404 16.0773 12.635 15.3624C13.2025 15.6541 13.6513 16.1379 13.7931 16.7681C13.8228 16.9004 13.7575 17.173 13.6765 17.2354Z" fill="#8C7AEC"/>
<path d="M18.4605 12.8531C17.8154 12.6802 17.3551 13.0852 17.2092 13.5816C17.0212 13.7502 16.897 13.9991 16.9002 14.3304C16.9286 17.1854 17.2641 20.0226 17.3663 22.8744C17.3797 23.2553 17.5597 23.5247 17.8053 23.6908C18.0328 23.9744 18.3939 24.1483 18.8489 24.0408C24.6931 22.6579 23.8057 14.2857 18.4605 12.8531ZM19.4006 21.556C19.2841 19.4998 19.0907 17.4482 19.021 15.3898C21.1049 16.8093 21.536 20.1879 19.4006 21.556Z" fill="#8C7AEC"/>
<path d="M27.6577 12.9702C26.8311 13.0462 26.0015 13.0475 25.1722 13.048C24.6525 13.048 24.3349 13.3584 24.2147 13.7395C24.1456 13.8813 24.1073 14.0495 24.1236 14.2522C24.3571 17.1543 24.5514 20.045 24.2788 22.9518C24.1527 24.2985 26.2508 24.2867 26.3759 22.9518C26.4792 21.8509 26.5124 20.7532 26.5052 19.6549C26.5611 19.6419 26.6153 19.6228 26.6713 19.6117C26.7036 19.6051 26.7218 19.6009 26.7392 19.5973C26.7551 19.5957 26.767 19.5948 26.7924 19.5921C26.9252 19.5774 27.0583 19.5748 27.1915 19.573C27.7632 19.5659 28.2402 19.1014 28.2402 18.5243C28.2402 17.9582 27.7636 17.4687 27.1915 17.4757C26.9412 17.4785 26.6914 17.501 26.4433 17.5362C26.4037 16.737 26.3509 15.9374 26.2899 15.137C26.746 15.1281 27.2025 15.1099 27.6576 15.0681C28.227 15.0159 28.7061 14.6305 28.7061 14.0194C28.7063 13.4865 28.2284 12.9176 27.6577 12.9702Z" fill="#8C7AEC"/>
</g>
<defs>
<clipPath id="clip0_1140_304">
<rect width="40" height="40" fill="white"/>
</clipPath>
</defs>
</svg>
