<svg width="41" height="32" viewBox="0 0 41 32" fill="none" xmlns="http://www.w3.org/2000/svg">
    <path d="M40.2794 5.78147C40.5443 6.48225 40.6768 7.31443 40.6768 8.27801C40.6768 9.85477 40.5443 11.3877 40.2794 12.8769C40.1028 14.3661 39.6613 16.0304 38.9549 17.87C38.2485 19.6219 37.2331 21.5491 35.9085 23.6515C34.584 25.7538 32.818 28.1628 30.6105 30.8783C29.1094 31.4039 27.8732 31.6667 26.9019 31.6667C25.6657 31.6667 24.871 31.2725 24.5178 30.4841C24.6061 30.0461 24.7386 29.5643 24.9152 29.0387C25.1801 28.4255 25.5333 27.681 25.9748 26.805L28.094 22.7317C29.0653 20.3665 29.6834 18.1328 29.9483 16.0304C29.3302 15.9428 28.5355 15.7238 27.5642 15.3734C26.5929 15.0231 25.4891 14.5413 24.2529 13.9281C23.105 11.5629 22.5311 9.46058 22.5311 7.62103L26.1072 1.57677C28.2264 0.525589 30.2132 0 32.0675 0C35.5112 0 38.2485 1.92716 40.2794 5.78147ZM18.4251 5.78147C18.69 6.48225 18.8225 7.31443 18.8225 8.27801C18.8225 9.85477 18.69 11.3877 18.4251 12.8769C18.2485 14.3661 17.807 16.0304 17.1006 17.87C16.3942 19.6219 15.3787 21.5491 14.0542 23.6515C12.7297 25.7538 10.9637 28.1628 8.75623 30.8783C7.25512 31.4039 6.01892 31.6667 5.04762 31.6667C3.81141 31.6667 3.01671 31.2725 2.66351 30.4841C2.75181 30.0461 2.88426 29.5643 3.06086 29.0387C3.32576 28.4255 3.67896 27.681 4.12047 26.805L6.23967 22.7317C7.21097 20.3665 7.82908 18.1328 8.09398 16.0304C7.47587 15.9428 6.68117 15.7238 5.70987 15.3734C4.73857 15.0231 3.63482 14.5413 2.39861 13.9281C1.25071 11.5629 0.676758 9.46058 0.676758 7.62103L4.25292 1.57677C6.37212 0.525589 8.35888 0 10.2132 0C13.6569 0 16.3942 1.92716 18.4251 5.78147Z" fill="#8C7AEC"/>
</svg>
